<?xml version="1.0" encoding="UTF-8" standalone="no"?>
<!-- Created with Inkscape (http://www.inkscape.org/) -->

<svg
   xmlns:dc="http://purl.org/dc/elements/1.1/"
   xmlns:cc="http://creativecommons.org/ns#"
   xmlns:rdf="http://www.w3.org/1999/02/22-rdf-syntax-ns#"
   xmlns:svg="http://www.w3.org/2000/svg"
   xmlns="http://www.w3.org/2000/svg"
   xmlns:sodipodi="http://sodipodi.sourceforge.net/DTD/sodipodi-0.dtd"
   xmlns:inkscape="http://www.inkscape.org/namespaces/inkscape"
   width="508mm"
   height="285.75mm"
   viewBox="0 0 508.00001 285.74999"
   version="1.1"
   id="svg8"
   inkscape:version="0.92.3 (2405546, 2018-03-11)"
   sodipodi:docname="wallpaper.svg"
   inkscape:export-filename="/home/sajay/Pictures/Wallpapers/wallpaper.png"
   inkscape:export-xdpi="150"
   inkscape:export-ydpi="150">
  <defs
     id="defs2" />
  <sodipodi:namedview
     id="base"
     pagecolor="#222222"
     bordercolor="#666666"
     borderopacity="1.0"
     inkscape:pageopacity="1"
     inkscape:pageshadow="2"
     inkscape:zoom="0.7"
     inkscape:cx="981.26105"
     inkscape:cy="541.2373"
     inkscape:document-units="mm"
     inkscape:current-layer="layer1"
     showgrid="false"
     units="mm"
     inkscape:window-width="1910"
     inkscape:window-height="1047"
     inkscape:window-x="0"
     inkscape:window-y="23"
     inkscape:window-maximized="0" />
  <metadata
     id="metadata5">
    <rdf:RDF>
      <cc:Work
         rdf:about="">
        <dc:format>image/svg+xml</dc:format>
        <dc:type
           rdf:resource="http://purl.org/dc/dcmitype/StillImage" />
        <dc:title />
      </cc:Work>
    </rdf:RDF>
  </metadata>
  <g
     inkscape:label="Layer 1"
     inkscape:groupmode="layer"
     id="layer1"
     transform="translate(0,-11.25001)">
    <circle
       style="fill:#f9f9f9;fill-opacity:1;stroke-width:0.26458332"
       id="path4546"
       cx="254"
       cy="154.12502"
       r="20" />
    <g
       id="g178"
       transform="matrix(1.4333527,0,0,1.4333527,-110.07146,-136.58574)">
      <path
         d="m 256.83792,182.36305 c -0.0102,-0.002 -2.83844,-0.6098 -2.83844,-0.6098 0,0 -2.83192,0.60847 -2.8374,0.6098 -0.0154,0.003 -0.0102,0.0162 -0.0102,0.0162 l 0.0392,0.14509 0.008,-2.1e-4 -0.001,2.1e-4 c 0,0 0.0439,-0.005 0.0694,0.035 l 0.0423,0.23329 c 0,0 0.001,0.0163 0.0177,0.0163 0.0175,0 0.10257,0 0.10257,0 h 5.13896 c 0,0 0.0893,0 0.10361,0 0.0144,0 0.0157,-0.012 0.0157,-0.012 l 0.0425,-0.23329 c 0.0243,-0.0457 0.0718,-0.0393 0.0718,-0.0393 l -10e-4,-2.1e-4 0.007,2.1e-4 0.0394,-0.14509 c 0,0 0.005,-0.0131 -0.0102,-0.0162"
         id="path24"
         style="fill:#ffffff;fill-rule:nonzero;stroke-width:0.26458332"
         inkscape:connector-curvature="0" />
      <path
         d="m 256.54116,182.88404 c 0.003,0 0.006,-0.002 0.006,-0.006 v -0.0724 c 0,-0.004 -0.003,-6e-4 -0.006,-6e-4 h -0.43119 c -0.003,0 -0.007,-0.003 -0.007,6e-4 v 0.0724 c 0,0.004 0.004,0.006 0.007,0.006 l 0.0183,2.1e-4 c 0.009,0 0.009,0.009 0.009,0.0171 0,0.0108 0.005,0.0669 0.0439,0.10073 0.006,0.005 0.004,0.0187 -0.008,0.0187 -0.001,0 -0.0123,0 -0.0133,0 -0.01,0 -0.0102,0.007 -0.007,0.0118 0.003,0.007 0.004,0.0257 0.004,0.0345 0,0.009 0,0.0251 0,0.0315 0,0.006 5.3e-4,0.0103 0.006,0.0103 5.3e-4,0 0.006,0 0.007,0 0,0 0.004,-5.3e-4 0.004,0.005 0,0.004 0,0.006 0,0.006 v 1.58594 c -0.005,0.005 -0.0214,0.0219 -0.023,0.0231 -10e-4,0.001 -0.003,0.003 -0.003,0.006 v 0.0269 c 0,0.002 -5.3e-4,0.005 -0.002,0.006 -10e-4,0.001 -0.003,0.002 -0.006,0.002 h -0.0198 c -0.004,0 -0.007,0.003 -0.007,0.007 0,0 0,0.0442 0,0.0458 h 0.42257 c 0,-0.002 0,-0.0458 0,-0.0458 0,-0.003 -0.003,-0.007 -0.006,-0.007 h -0.0198 c -0.003,0 -0.005,-6.1e-4 -0.006,-0.002 -0.001,-0.001 -0.002,-0.004 -0.002,-0.006 v -0.0269 c 0,-0.002 -5.3e-4,-0.004 -0.003,-0.006 -0.003,-0.002 -0.0164,-0.0163 -0.023,-0.0233 v -1.58592 c 0,0 0,-0.002 0,-0.006 0,-0.005 0.004,-0.005 0.004,-0.005 2.6e-4,0 0.005,0 0.006,0 0.005,0 0.007,-0.005 0.007,-0.0103 0,-0.006 0,-0.0224 0,-0.0315 0,-0.009 0.002,-0.028 0.005,-0.0345 0.004,-0.005 0.003,-0.0118 -0.008,-0.0118 -5.3e-4,0 -0.0123,0 -0.0128,0 -0.0123,0 -0.0138,-0.0139 -0.009,-0.0187 0.0397,-0.0323 0.0438,-0.0886 0.0438,-0.0995 0,-0.01 -5.3e-4,-0.0183 0.0102,-0.0183 l 0.0178,-2.1e-4"
         id="path26"
         style="fill:#ffffff;fill-rule:nonzero;stroke-width:0.26458332"
         inkscape:connector-curvature="0" />
      <path
         d="m 255.61145,182.88404 c 0.003,0 0.006,-0.002 0.006,-0.006 v -0.0724 c 0,-0.004 -0.003,-6e-4 -0.006,-6e-4 h -0.43197 c -0.003,0 -0.006,-0.003 -0.006,6e-4 v 0.0724 c 0,0.004 0.003,0.006 0.006,0.006 l 0.0188,2.1e-4 c 0.008,0 0.009,0.009 0.009,0.0171 0,0.0108 0.005,0.0669 0.0439,0.10073 0.005,0.005 0.003,0.0187 -0.008,0.0187 -0.001,0 -0.0125,0 -0.013,0 -0.0102,0 -0.0112,0.007 -0.008,0.0118 0.004,0.007 0.005,0.0257 0.005,0.0345 0,0.009 0,0.0251 0,0.0315 0,0.006 0.001,0.0103 0.007,0.0103 h 0.006 c 0,0 0.004,-5.3e-4 0.004,0.005 0,0.004 5.3e-4,0.006 5.3e-4,0.006 v 1.58594 c -0.005,0.005 -0.0224,0.0219 -0.0235,0.0231 -0.001,0.001 -0.002,0.003 -0.002,0.006 v 0.0269 c 0,0.002 0,0.005 -0.002,0.006 -0.001,0.001 -0.003,0.002 -0.006,0.002 h -0.0203 c -0.003,0 -0.005,0.003 -0.005,0.007 0,0 0,0.0442 0,0.0458 h 0.42153 c 0,-0.002 0,-0.0458 0,-0.0458 0,-0.003 -0.003,-0.007 -0.006,-0.007 h -0.0201 c -0.002,0 -0.005,-6.1e-4 -0.006,-0.002 -0.002,-0.001 -0.002,-0.004 -0.002,-0.006 v -0.0269 c 0,-0.002 -5.3e-4,-0.004 -0.003,-0.006 -0.002,-0.002 -0.0157,-0.0163 -0.023,-0.0233 v -1.58592 c 0,0 0,-0.002 0,-0.006 0,-0.005 0.005,-0.005 0.005,-0.005 5.3e-4,0 0.005,0 0.006,0 0.005,0 0.006,-0.005 0.006,-0.0103 0,-0.006 0,-0.0224 0,-0.0315 0,-0.009 0.002,-0.028 0.005,-0.0345 0.003,-0.005 0.002,-0.0118 -0.008,-0.0118 -5.2e-4,0 -0.0117,0 -0.0128,0 -0.0123,0 -0.0136,-0.0139 -0.008,-0.0187 0.0397,-0.0323 0.0438,-0.0886 0.0438,-0.0995 0,-0.01 -5.3e-4,-0.0183 0.01,-0.0183 l 0.0185,-2.1e-4"
         id="path28"
         style="fill:#ffffff;fill-rule:nonzero;stroke-width:0.26458332"
         inkscape:connector-curvature="0" />
      <path
         d="m 254.68096,182.88404 c 0.004,0 0.006,-0.002 0.006,-0.006 v -0.0724 c 0,-0.004 -0.002,-6e-4 -0.006,-6e-4 h -0.43171 c -0.004,0 -0.006,-0.003 -0.006,6e-4 v 0.0724 c 0,0.004 0.003,0.006 0.006,0.006 l 0.0188,2.1e-4 c 0.008,0 0.009,0.009 0.009,0.0171 0,0.0108 0.005,0.0669 0.0444,0.10073 0.005,0.005 0.003,0.0187 -0.008,0.0187 -10e-4,0 -0.0128,0 -0.0133,0 -0.0102,0 -0.0107,0.007 -0.008,0.0118 0.003,0.007 0.004,0.0257 0.004,0.0345 0,0.009 0,0.0251 0,0.0315 0,0.006 5.3e-4,0.0103 0.006,0.0103 5.3e-4,0 0.007,0 0.007,0 0,0 0.005,-5.3e-4 0.005,0.005 0,0.004 0,0.006 0,0.006 v 1.58594 c -0.005,0.005 -0.0219,0.0219 -0.0235,0.0231 -0.002,0.001 -0.003,0.003 -0.003,0.006 v 0.0269 c 0,0.002 -5.3e-4,0.005 -0.002,0.006 -0.002,0.001 -0.004,0.002 -0.006,0.002 h -0.0198 c -0.003,0 -0.006,0.003 -0.006,0.007 0,0 0,0.0442 0,0.0458 h 0.4218 c 0,-0.002 0,-0.0458 0,-0.0458 0,-0.003 -0.003,-0.007 -0.006,-0.007 h -0.0198 c -0.003,0 -0.005,-6.1e-4 -0.006,-0.002 -7.9e-4,-0.001 -0.002,-0.004 -0.002,-0.006 v -0.0269 c 0,-0.002 -5.3e-4,-0.004 -0.002,-0.006 -0.003,-0.002 -0.0159,-0.0163 -0.0235,-0.0233 v -1.58592 c 0,0 0,-0.002 0,-0.006 0,-0.005 0.005,-0.005 0.005,-0.005 5.3e-4,0 0.005,0 0.005,0 0.007,0 0.007,-0.005 0.007,-0.0103 0,-0.006 0,-0.0224 0,-0.0315 0,-0.009 0.002,-0.028 0.005,-0.0345 0.003,-0.005 0.003,-0.0118 -0.008,-0.0118 -5.2e-4,0 -0.0123,0 -0.0133,0 -0.0123,0 -0.0138,-0.0139 -0.008,-0.0187 0.0391,-0.0323 0.0428,-0.0886 0.0428,-0.0995 0,-0.01 0,-0.0183 0.0102,-0.0183 l 0.0183,-2.1e-4"
         id="path30"
         style="fill:#ffffff;fill-rule:nonzero;stroke-width:0.26458332"
         inkscape:connector-curvature="0" />
      <path
         d="m 253.75074,182.88404 c 0.003,0 0.006,-0.002 0.006,-0.006 v -0.0724 c 0,-0.004 -0.003,-6e-4 -0.006,-6e-4 h -0.43197 c -0.003,0 -0.005,-0.003 -0.005,6e-4 v 0.0724 c 0,0.004 0.002,0.006 0.005,0.006 l 0.0185,2.1e-4 c 0.009,0 0.009,0.009 0.009,0.0171 0,0.0108 0.005,0.0669 0.0444,0.10073 0.005,0.005 0.003,0.0187 -0.008,0.0187 -7.6e-4,0 -0.0125,0 -0.013,0 -0.0102,0 -0.0107,0.007 -0.008,0.0118 0.004,0.007 0.005,0.0257 0.005,0.0345 0,0.009 0,0.0251 0,0.0315 0,0.006 5.3e-4,0.0103 0.007,0.0103 0,0 0.006,0 0.006,0 0,0 0.004,-5.3e-4 0.004,0.005 0,0.004 0,0.006 0,0.006 v 1.58594 c -0.004,0.005 -0.0219,0.0219 -0.0232,0.0231 -0.001,0.001 -0.002,0.003 -0.002,0.006 v 0.0269 c 0,0.002 -5.3e-4,0.005 -0.002,0.006 -0.002,0.001 -0.004,0.002 -0.006,0.002 h -0.0198 c -0.003,0 -0.006,0.003 -0.006,0.007 0,0 0,0.0442 0,0.0458 h 0.42153 c 0,-0.002 0,-0.0458 0,-0.0458 0,-0.003 -0.003,-0.007 -0.006,-0.007 h -0.0201 c -0.002,0 -0.004,-6.1e-4 -0.006,-0.002 -0.001,-0.001 -0.002,-0.004 -0.002,-0.006 v -0.0269 c 0,-0.002 -5.3e-4,-0.004 -0.003,-0.006 -0.002,-0.002 -0.0162,-0.0163 -0.0227,-0.0233 v -1.58592 c 0,0 -5.3e-4,-0.002 -5.3e-4,-0.006 0,-0.005 0.004,-0.005 0.004,-0.005 5.3e-4,0 0.006,0 0.006,0 0.005,0 0.006,-0.005 0.006,-0.0103 0,-0.006 0,-0.0224 0,-0.0315 0,-0.009 0.002,-0.028 0.005,-0.0345 0.003,-0.005 0.002,-0.0118 -0.008,-0.0118 -0.001,0 -0.0123,0 -0.0128,0 -0.0125,0 -0.0141,-0.0139 -0.009,-0.0187 0.0399,-0.0323 0.0438,-0.0886 0.0438,-0.0995 0,-0.01 -5.2e-4,-0.0183 0.01,-0.0183 l 0.0185,-2.1e-4"
         id="path32"
         style="fill:#ffffff;fill-rule:nonzero;stroke-width:0.26458332"
         inkscape:connector-curvature="0" />
      <path
         d="m 252.82025,182.88404 c 0.004,0 0.006,-0.002 0.006,-0.006 v -0.0724 c 0,-0.004 -0.003,-6e-4 -0.006,-6e-4 h -0.43119 c -0.004,0 -0.006,-0.003 -0.006,6e-4 v 0.0724 c 0,0.004 0.003,0.006 0.006,0.006 l 0.0177,2.1e-4 c 0.009,0 0.01,0.009 0.01,0.0171 0,0.0108 0.005,0.0669 0.0444,0.10073 0.005,0.005 0.003,0.0187 -0.009,0.0187 -5.3e-4,0 -0.0128,0 -0.0133,0 -0.0102,0 -0.0107,0.007 -0.008,0.0118 0.004,0.007 0.004,0.0257 0.004,0.0345 0,0.009 0,0.0251 0,0.0315 0,0.006 5.3e-4,0.0103 0.007,0.0103 5.3e-4,0 0.005,0 0.006,0 0,0 0.005,-5.3e-4 0.005,0.005 0,0.004 0,0.006 0,0.006 v 1.58594 c -0.005,0.005 -0.0219,0.0219 -0.023,0.0231 -0.002,0.001 -0.003,0.003 -0.003,0.006 v 0.0269 c 0,0.002 -5.3e-4,0.005 -0.002,0.006 -7.6e-4,0.001 -0.003,0.002 -0.006,0.002 h -0.0193 c -0.004,0 -0.007,0.003 -0.007,0.007 0,0 0,0.0442 0,0.0458 h 0.42179 c 0,-0.002 0,-0.0458 0,-0.0458 0,-0.003 -0.003,-0.007 -0.006,-0.007 h -0.0204 c -0.002,0 -0.004,-6.1e-4 -0.005,-0.002 -0.002,-0.001 -0.002,-0.004 -0.002,-0.006 v -0.0269 c 0,-0.002 -5.2e-4,-0.004 -0.003,-0.006 -0.002,-0.002 -0.0164,-0.0163 -0.0235,-0.0233 v -1.58592 c 0,0 0,-0.002 0,-0.006 0,-0.005 0.005,-0.005 0.005,-0.005 5.3e-4,0 0.005,0 0.005,0 0.006,0 0.007,-0.005 0.007,-0.0103 0,-0.006 0,-0.0224 0,-0.0315 0,-0.009 0.001,-0.028 0.005,-0.0345 0.004,-0.005 0.003,-0.0118 -0.008,-0.0118 -5.3e-4,0 -0.0123,0 -0.0133,0 -0.0123,0 -0.0138,-0.0139 -0.008,-0.0187 0.0397,-0.0323 0.0438,-0.0886 0.0438,-0.0995 0,-0.01 -5.3e-4,-0.0183 0.01,-0.0183 l 0.0183,-2.1e-4"
         id="path34"
         style="fill:#ffffff;fill-rule:nonzero;stroke-width:0.26458332"
         inkscape:connector-curvature="0" />
      <path
         d="m 251.89002,182.88404 c 0.003,0 0.007,-0.002 0.007,-0.006 v -0.0724 c 0,-0.004 -0.003,-6e-4 -0.007,-6e-4 h -0.43144 c -0.003,0 -0.006,-0.003 -0.006,6e-4 v 0.0724 c 0,0.004 0.003,0.006 0.006,0.006 l 0.0185,2.1e-4 c 0.009,0 0.009,0.009 0.009,0.0171 0,0.0108 0.005,0.0669 0.0444,0.10073 0.005,0.005 0.003,0.0187 -0.008,0.0187 -7.7e-4,0 -0.0125,0 -0.0136,0 -0.01,0 -0.0102,0.007 -0.007,0.0118 0.004,0.007 0.004,0.0257 0.004,0.0345 0,0.009 0,0.0251 0,0.0315 0,0.006 5.3e-4,0.0103 0.007,0.0103 h 0.006 c 0,0 0.004,-5.3e-4 0.004,0.005 0,0.004 0,0.006 0,0.006 v 1.58594 c -0.004,0.005 -0.0214,0.0219 -0.0227,0.0231 -0.002,0.001 -0.003,0.003 -0.003,0.006 v 0.0269 c 0,0.002 -5.3e-4,0.005 -0.002,0.006 -0.002,0.001 -0.004,0.002 -0.006,0.002 h -0.0198 c -0.003,0 -0.007,0.003 -0.007,0.007 0,0 0,0.0442 0,0.0458 h 0.42205 c 0,-0.002 0,-0.0458 0,-0.0458 0,-0.003 -0.003,-0.007 -0.006,-0.007 h -0.0204 c -0.002,0 -0.005,-6.1e-4 -0.006,-0.002 -0.002,-0.001 -0.002,-0.004 -0.002,-0.006 v -0.0269 c 0,-0.002 -5.3e-4,-0.004 -0.002,-0.006 -0.002,-0.002 -0.0167,-0.0163 -0.0232,-0.0233 v -1.58592 c 0,0 0,-0.002 0,-0.006 0,-0.005 0.004,-0.005 0.004,-0.005 5.3e-4,0 0.006,0 0.006,0 0.006,0 0.007,-0.005 0.007,-0.0103 0,-0.006 0,-0.0224 0,-0.0315 0,-0.009 0.001,-0.028 0.005,-0.0345 0.002,-0.005 0.002,-0.0118 -0.008,-0.0118 -0.001,0 -0.0123,0 -0.013,0 -0.0128,0 -0.0138,-0.0139 -0.008,-0.0187 0.0394,-0.0323 0.0433,-0.0886 0.0433,-0.0995 0,-0.01 -5.3e-4,-0.0183 0.0102,-0.0183 l 0.018,-2.1e-4"
         id="path36"
         style="fill:#ffffff;fill-rule:nonzero;stroke-width:0.26458332"
         inkscape:connector-curvature="0" />
      <path
         d="m 255.32017,181.2043 c 0,0 -0.035,0 -0.0444,0 -0.0118,0 -0.0112,-0.01 -0.0112,-0.01 0,0 0,-0.0381 0,-0.0478 0,-0.0122 -0.012,-0.0122 -0.012,-0.0122 0,0 -0.0326,0 -0.0436,0 -0.012,0 -0.0115,-0.0109 -0.0115,-0.0109 v -0.0441 c 0,0 0,-0.01 -0.0112,-0.01 -0.004,0 -0.0191,0 -0.0261,0 -0.009,0 -0.0188,-0.008 -0.0193,-0.0203 -0.002,-0.0603 0.0193,-0.48584 -0.20541,-0.79383 -0.17696,-0.26458 -0.42074,-0.39897 -0.55516,-0.46146 -0.003,-0.0574 -0.0843,-0.0791 -0.1198,-0.0916 -0.0191,-0.006 -0.0352,-0.0139 -0.0352,-0.0306 0,-9.3e-4 -5.3e-4,-0.0187 -5.3e-4,-0.0196 0,-0.0178 0.0164,-0.025 0.0407,-0.0243 0.008,3.2e-4 0.0133,-0.006 0.0133,-0.0112 v -0.0517 c 0,-0.007 -0.007,-0.0156 -0.0172,-0.0156 -0.018,0 -0.0384,-1e-4 -0.0485,-1e-4 -0.0118,0 -0.0172,-0.0106 -0.0172,-0.017 0,-0.0105 0,-0.006 0,-0.0259 0,-0.0152 -0.0117,-0.0237 -0.0209,-0.0282 v -0.31709 c 0,-0.0107 0.008,-0.009 0.0151,-0.009 0.001,0 0.003,0 0.004,-4.3e-4 h 10e-4 c 0.004,0 0.008,-0.004 0.008,-0.008 v -0.0303 c 0,-0.004 -0.004,-0.007 -0.008,-0.007 h -0.0144 c -0.005,-0.002 -0.009,-0.009 -0.009,-0.0232 0,-0.0147 0.004,-0.0216 0.0107,-0.0228 h 0.0123 c 0.004,0 0.008,-0.003 0.008,-0.007 v -0.0308 c 0,-0.004 -0.004,-0.007 -0.008,-0.007 h -0.0164 c -0.007,-0.001 -0.0123,-0.004 -0.0193,-0.01 -0.054,-0.0428 -0.10858,-0.1045 -0.10858,-0.11367 0,-0.005 0,-0.005 0,-0.0114 0,-0.006 -0.007,-0.0195 -0.0214,-0.0195 -0.0144,0 -0.0123,-0.0149 -0.005,-0.0149 0.005,0 0.006,-0.001 0.006,-0.008 0,-0.004 0,-0.0123 0,-0.0206 0,-0.009 -0.0277,-0.0474 -0.0277,-0.0474 h -0.002 c 0,0 -0.0282,0.0382 -0.0282,0.0474 0,0.008 0,0.0162 0,0.0206 0,0.007 0.002,0.008 0.007,0.008 0.008,0 0.01,0.0149 -0.004,0.0149 -0.0149,0 -0.0214,0.013 -0.0214,0.0195 0,0.006 -5.3e-4,0.006 -5.3e-4,0.0114 0,0.009 -0.0546,0.0709 -0.10858,0.11367 -0.007,0.006 -0.0123,0.009 -0.0193,0.01 h -0.0164 c -0.004,0 -0.008,0.003 -0.008,0.007 v 0.0308 c 0,0.004 0.004,0.007 0.008,0.007 h 0.0128 c 0.006,0.001 0.0102,0.008 0.0102,0.0228 0,0.0142 -0.004,0.0208 -0.009,0.0232 h -0.0143 c -0.004,0 -0.008,0.003 -0.008,0.007 v 0.0303 c 0,0.004 0.004,0.008 0.008,0.008 h 0.001 c 0.002,4.3e-4 0.003,4.3e-4 0.004,4.3e-4 0.007,0 0.0156,-10e-4 0.0156,0.009 v 0.3176 c -0.009,0.004 -0.0214,0.013 -0.0214,0.0282 0,0.0201 0,0.0154 0,0.0259 0,0.006 -0.005,0.0171 -0.0172,0.0171 -0.0102,0 -0.0311,1e-4 -0.0486,1e-4 -0.0107,0 -0.0178,0.008 -0.0178,0.0156 v 0.0517 c 0,0.005 0.006,0.0115 0.0133,0.0112 0.0245,-7.2e-4 0.0412,0.006 0.0412,0.0243 0,9.2e-4 -5.2e-4,0.0187 -5.2e-4,0.0196 0,0.0167 -0.0167,0.0243 -0.0352,0.0306 -0.0355,0.0124 -0.11719,0.0342 -0.11928,0.0916 -0.13494,0.0625 -0.37924,0.19688 -0.55516,0.46146 -0.22525,0.30799 -0.20385,0.73356 -0.20594,0.79383 -5.3e-4,0.0126 -0.01,0.0203 -0.0193,0.0203 -0.007,0 -0.0219,0 -0.0261,0 -0.0112,0 -0.0112,0.01 -0.0112,0.01 v 0.0441 c 0,0 5.3e-4,0.0109 -0.0112,0.0109 -0.0112,0 -0.0441,0 -0.0441,0 0,0 -0.0112,0 -0.0112,0.0122 0,0.01 0,0.0478 0,0.0478 0,0 5.2e-4,0.01 -0.0123,0.01 -0.009,0 -0.0444,0 -0.0444,0 0,0 -0.0123,0 -0.0123,0.0124 0,0.007 0,0.0359 0,0.0515 0,0.006 0.004,0.007 0.008,0.007 0.0133,0.002 0.0402,0.0139 0.0402,0.0432 0,0.0502 0.0308,0.0549 0.0431,0.0549 v 0.18527 c 0,0.0431 -0.0337,0.0602 -0.0527,0.0648 -0.004,6e-4 -0.009,0.005 -0.009,0.0103 0,0.005 0,0.19066 0,0.19066 l 1.30111,-0.287 h 0.002 l 1.30111,0.287 c 0,0 0,-0.18576 0,-0.19066 0,-0.005 -0.006,-0.01 -0.01,-0.0103 -0.0191,-0.005 -0.0522,-0.0216 -0.0522,-0.0648 v -0.18527 c 0.0123,0 0.0431,-0.005 0.0431,-0.0549 0,-0.0294 0.0269,-0.0415 0.0397,-0.0432 0.004,-7.4e-4 0.008,-0.002 0.008,-0.007 0,-0.0156 0,-0.0443 0,-0.0515 0,-0.0124 -0.0128,-0.0124 -0.0128,-0.0124"
         id="path38"
         style="fill:#ffffff;fill-rule:nonzero;stroke-width:0.26458332"
         inkscape:connector-curvature="0" />
      <path
         d="m 256.75936,185.3625 v -0.38029 h -0.22238 v -0.16611 h -5.0737 v 0.16579 h -0.2229 v 0.37998 h -0.22368 v 0.38418 l 5.96634,4.2e-4 v -0.38397 h -0.22369"
         id="path40"
         style="fill:#ffffff;fill-rule:nonzero;stroke-width:0.26458332"
         inkscape:connector-curvature="0" />
    </g>
  </g>
</svg>
